<?xml version="1.0" encoding="utf-8"?>
<!-- Generator: Adobe Illustrator 27.5.0, SVG Export Plug-In . SVG Version: 6.00 Build 0)  -->
<svg version="1.1" id="Layer_1" xmlns="http://www.w3.org/2000/svg" xmlns:xlink="http://www.w3.org/1999/xlink" x="0px" y="0px"
	 viewBox="0 0 1392 239" style="enable-background:new 0 0 1392 239;" xml:space="preserve">
<style type="text/css">
	.st0{clip-path:url(#SVGID_00000177481903477005554930000003610983006962302382_);fill:#0046FF;}
	.st1{clip-path:url(#SVGID_00000112601254534569086240000002309886320541283509_);fill:#0046FF;}
</style>
<g>
	<g>
		<g>
			<defs>
				<rect id="SVGID_1_" x="-0.1" width="1928.3" height="238.2"/>
			</defs>
			<clipPath id="SVGID_00000074418908445707361420000005398264641372503686_">
				<use xlink:href="#SVGID_1_"  style="overflow:visible;"/>
			</clipPath>
			<path style="clip-path:url(#SVGID_00000074418908445707361420000005398264641372503686_);fill:#0046FF;" d="M1393.2,208.9
				c0-4.1-3-7-7.2-7c-4,0-7.2,2.9-7.2,7c0,4,3.1,6.9,7.2,6.9C1390,215.9,1393.2,213,1393.2,208.9 M1388.9,195.2l1.7-60.2h-9.2
				l1.6,60.2H1388.9z M1348.9,183.8c0-12.9,9.5-20.6,21.9-20.1v-8.2c-9.7,0-18.5,5.6-22.5,14.3v-13.4h-7.3v59h7.8L1348.9,183.8
				L1348.9,183.8z M1301.5,161.3c10.9,0,17.7,7.8,18.4,21h-37.5C1283.4,169.4,1290.9,161.3,1301.5,161.3 M1302.1,216.4
				c13.5,0,23.5-8,26.2-21h-7.7c-1.9,9.4-8.7,14.9-18.6,14.9c-11.5,0-18.9-8.6-19.6-22.6h45.7c1.3-18.9-9.6-32.5-26.4-32.5
				c-15.7,0-27.1,12.9-27.1,30.1C1274.5,204,1285.5,216.4,1302.1,216.4 M1223.3,180.9c0-11,7.4-18.9,16.6-18.9
				c9.6,0,14.8,6.4,14.8,17.7v35.6h7.8V177c0-14-8-21.8-20.3-21.8c-8.5,0-15.7,4.9-19.5,12.2v-11.1h-7.3v59h7.8L1223.3,180.9
				L1223.3,180.9z M1154.2,185c0-14.3,6.9-23.1,18.1-23.1s18.5,9.2,18.5,23.6c0,13.7-7.4,22.6-18.5,22.6
				C1161,208.2,1154.2,199.4,1154.2,185 M1173,238.2c16.1,0,25.4-9,25.4-24.2v-57.6h-7.3v12.5c-3.8-8.6-11.2-13.7-20-13.7
				c-14.9,0-24.7,11.9-24.7,29.8s10,29.9,24.8,29.9c8.7,0,15.9-4.8,19.5-13.1v12.3c0,11.6-6.2,17.8-17.8,17.8
				c-10.5,0-16.8-5.1-17.5-14.8h-7.5C1148.6,230.3,1158,238.2,1173,238.2 M1133.7,156.3h-7.8v59h7.8V156.3z M1136.1,142.7
				c0-3.4-2.6-5.8-6.4-5.8c-3.7,0-6.3,2.5-6.3,5.8c0,3.5,2.6,5.9,6.3,5.9C1133.5,148.6,1136.1,146.2,1136.1,142.7 M1112.2,198.9
				c0-8.4-5.3-13.3-17-15.6l-8.8-1.7c-8.7-1.7-12.3-4.5-12.3-10.3c0-6.2,5.7-10.1,14-10.1c9.3,0,15.2,4.8,16,13h7.4
				c-0.9-11.7-9.9-19-23.4-19c-12.9,0-21.6,6.9-21.6,16.8c0,8.5,5.9,14,17.1,16.1l8.5,1.7c9,1.8,12.3,4.5,12.3,10.3
				c0,6.7-5.8,10.4-15.4,10.4c-10.1,0-16.7-5.3-17.2-13.7h-7.5c1.1,12.2,10.1,19.6,24.7,19.6
				C1103.5,216.4,1112.2,209.7,1112.2,198.9 M1028.6,161.3c10.9,0,17.7,7.8,18.4,21h-37.5C1010.5,169.4,1018,161.3,1028.6,161.3
				 M1029.2,216.4c13.5,0,23.5-8,26.2-21h-7.7c-1.9,9.4-8.7,14.9-18.6,14.9c-11.5,0-18.9-8.6-19.6-22.6h45.7
				c1.3-18.9-9.6-32.5-26.4-32.5c-15.7,0-27.1,12.9-27.1,30.1C1001.7,204,1012.6,216.4,1029.2,216.4 M938.7,142.2h14.2
				c20.6,0,31.7,12.8,31.7,32.6c0,19.9-11.3,33.2-31.7,33.2h-14.2V142.2z M953.1,215.3c25.2,0,40-17.3,40-40.5
				c0-23.5-14.2-39.8-40-39.8h-22.8v80.4h22.8V215.3z M850.7,180.9c0-11,7.4-18.9,16.6-18.9c9.6,0,14.8,6.4,14.8,17.7v35.6h7.8V177
				c0-14-8-21.8-20.3-21.8c-8.5,0-15.7,4.9-19.5,12.2v-11.1h-7.3v59h7.8L850.7,180.9L850.7,180.9z M802.1,209.6
				c-11.4,0-20-9.2-20-23.8c0-14.4,8.6-23.6,20-23.6c11.5,0,20.1,9.2,20.1,23.6C822.3,200.4,813.6,209.6,802.1,209.6 M802.1,216.4
				c16.3,0,28.1-12.9,28.1-30.7c0-17.7-11.7-30.4-28.1-30.4c-16.2,0-28,12.8-28,30.4C774.1,203.6,785.9,216.4,802.1,216.4
				 M761.5,156.3h-7.8v59h7.8V156.3z M763.8,142.7c0-3.4-2.6-5.8-6.4-5.8c-3.7,0-6.3,2.5-6.3,5.8c0,3.5,2.6,5.9,6.3,5.9
				C761.3,148.6,763.8,146.2,763.8,142.7 M741.2,207.8c-2.5,1-4.5,1.5-6.9,1.5c-6.5,0-11-3.1-11-12.3v-34h18.5v-6.6h-18.5v-17.5
				h-7.8v17.5h-13.9v6.6h13.9v35.7c0,12.8,7.5,17.8,17.2,17.8c2.9,0,5.5-0.4,8.5-1.7V207.8z M655.6,198.8c0-8.2,6.5-12.1,19.9-12.1
				c3.2,0,6.7,0.1,11.7,0.6v5.3c0,11.1-6.9,18.2-17.9,18.2C661.1,210.7,655.6,205.9,655.6,198.8 M688.1,215.3h6.7v-38.4
				c0-13.7-8.1-21.7-21.8-21.7c-13.4,0-22.5,8.7-22.8,21.8h7.2c0.1-9.6,6.2-15.6,15.8-15.6c9,0,14.2,5.8,14.2,15.7v4.9
				c-5.8-0.4-8.5-0.7-12.1-0.7c-17.9,0-27.1,6-27.1,17.6c0,10.6,8,17.5,20.1,17.5c9.2,0,16.3-4.5,19.8-11.9L688.1,215.3L688.1,215.3
				z M613.2,216.5c13.9,0,23.8-9.1,26-24.1h-8c-1.8,11-8.4,17.2-18,17.2c-11,0-18.5-9.6-18.5-24c0-14.1,7.5-23.7,18.5-23.7
				c9.5,0,16.2,6.4,18,17.1h8c-2.3-14.8-12.2-24-26-24c-15.4,0-26.4,12.7-26.4,30.6C586.8,203.9,597.6,216.5,613.2,216.5
				 M574.1,156.3h-7.8v59h7.8V156.3z M576.5,142.7c0-3.4-2.6-5.8-6.4-5.8c-3.7,0-6.3,2.5-6.3,5.8c0,3.5,2.6,5.9,6.3,5.9
				C573.9,148.6,576.5,146.2,576.5,142.7 M510.7,180.9c0-11,7.4-18.9,16.6-18.9c9.6,0,14.8,6.4,14.8,17.7v35.6h7.8V177
				c0-14-8-21.8-20.3-21.8c-8.5,0-15.7,4.9-19.5,12.2v-11.1h-7.3v59h7.8L510.7,180.9L510.7,180.9z M478.1,191.5
				c0,10.5-6.8,18.1-16.2,18.1c-8.3,0-14.2-4.6-14.2-16.6v-36.7h-7.8v38.4c0,14.9,8,21.7,19.9,21.7c8.6,0,15.8-4.9,18.8-11.7v10.6
				h7.3v-59h-7.7L478.1,191.5L478.1,191.5z M346.6,215.3v-34.6c0-10.9,7.2-18.7,16.2-18.7c9.5,0,14.7,6.4,14.7,17.6v35.7h7.8v-34.6
				c0-10.9,7.3-18.7,16.2-18.7c9.5,0,14.7,6.4,14.7,17.6v35.7h7.7V177c0-13.8-7.6-21.8-19.8-21.8c-9.3,0-16.7,5.4-20.4,13.7
				c-2.5-8.6-9.3-13.7-18.5-13.7c-8.4,0-15.3,4.6-19.3,12.2v-11.1h-7.3v59L346.6,215.3L346.6,215.3z M245,215.3v-34.6
				c0-10.9,7.2-18.7,16.2-18.7c9.5,0,14.7,6.4,14.7,17.6v35.7h7.8v-34.6c0-10.9,7.3-18.7,16.2-18.7c9.5,0,14.7,6.4,14.7,17.6v35.7
				h7.7V177c0-13.8-7.6-21.8-19.8-21.8c-9.3,0-16.7,5.4-20.4,13.7c-2.5-8.6-9.3-13.7-18.5-13.7c-8.4,0-15.3,4.6-19.3,12.2v-11.1H237
				v59L245,215.3L245,215.3z M196.4,209.6c-11.4,0-20-9.2-20-23.8c0-14.4,8.6-23.6,20-23.6c11.5,0,20.1,9.2,20.1,23.6
				C216.5,200.4,207.9,209.6,196.4,209.6 M196.4,216.4c16.3,0,28.1-12.9,28.1-30.7c0-17.7-11.7-30.4-28.1-30.4
				c-16.2,0-28,12.8-28,30.4C168.4,203.6,180.1,216.4,196.4,216.4 M121.7,217c19.1,0,34.9-13,38-32.1h-8.8
				c-2.5,14.3-14.3,24.6-29.2,24.6c-17.8,0-30.7-14.6-30.7-34.5c0-19.7,12.9-34.3,30.7-34.3c14.8,0,26.6,10.2,29.2,24.5h8.8
				c-3.1-19.1-18.9-32-38-32c-22.4,0-39.3,18.1-39.3,41.7C82.4,198.8,99.3,217,121.7,217 M7.4,198.8c0-8.2,6.5-12.1,19.9-12.1
				c3.2,0,6.7,0.1,11.7,0.6v5.3c0,11.1-6.9,18.2-17.9,18.2C12.9,210.7,7.4,205.9,7.4,198.8 M39.9,215.3h6.7v-38.4
				c0-13.7-8.1-21.7-21.8-21.7c-13.4,0-22.5,8.7-22.8,21.8h7.2c0.1-9.6,6.2-15.6,15.8-15.6c9,0,14.2,5.8,14.2,15.7v4.9
				c-5.8-0.4-8.5-0.7-12.1-0.7c-17.9,0-27.1,6-27.1,17.6c0,10.6,8,17.5,20.1,17.5c9.2,0,16.3-4.5,19.8-11.9V215.3L39.9,215.3z"/>
		</g>
	</g>
	<g>
		<g>
			<defs>
				<rect id="SVGID_00000010268812605994784500000018039398459248316316_" x="-0.1" width="1928.3" height="238.2"/>
			</defs>
			<clipPath id="SVGID_00000152948778707508198480000002286146221160402599_">
				<use xlink:href="#SVGID_00000010268812605994784500000018039398459248316316_"  style="overflow:visible;"/>
			</clipPath>
			<path style="clip-path:url(#SVGID_00000152948778707508198480000002286146221160402599_);fill:#0046FF;" d="M1347.5,77.3
				c0-5.9-2.6-10-7.8-10c-3.8,0-6.7,2.6-6.7,6.5c0,3.4,2.6,6.2,6.2,6.2c0.9,0,1.7-0.1,2.6-0.6c-0.4,5.1-4.8,9.1-11.2,9.5v4.7
				C1341.2,93.3,1347.5,85.6,1347.5,77.3 M1295.7,75.3c-11.4,0-20-9.2-20-23.8c0-14.4,8.6-23.6,20-23.6c11.5,0,20.1,9.2,20.1,23.6
				C1315.8,66.1,1307.2,75.3,1295.7,75.3 M1295.7,82.1c16.3,0,28.1-12.9,28.1-30.7c0-17.7-11.7-30.4-28.1-30.4
				c-16.2,0-28,12.8-28,30.4C1267.7,69.2,1279.5,82.1,1295.7,82.1 M1240.6,49.4c0-12.9,9.5-20.6,21.9-20.1v-8.2
				c-9.7,0-18.5,5.6-22.5,14.3V22h-7.3v59h7.8L1240.6,49.4L1240.6,49.4z M1215.8,22h-7.8v59h7.8V22z M1218.1,8.4
				c0-3.4-2.6-5.8-6.4-5.8c-3.7,0-6.3,2.5-6.3,5.8c0,3.5,2.6,5.9,6.3,5.9C1215.6,14.3,1218.1,11.8,1218.1,8.4 M1168.4,26.9
				c10.9,0,17.7,7.8,18.4,21h-37.5C1150.3,35.1,1157.8,26.9,1168.4,26.9 M1169,82.1c13.5,0,23.5-8,26.2-21h-7.7
				c-1.9,9.4-8.7,14.9-18.6,14.9c-11.5,0-18.9-8.6-19.6-22.6h45.7c1.3-18.9-9.6-32.5-26.4-32.5c-15.7,0-27.1,12.9-27.1,30.1
				C1141.5,69.7,1152.4,82.1,1169,82.1 M1135.3,73.5c-2.5,1-4.5,1.5-6.9,1.5c-6.5,0-11-3.1-11-12.3v-34h18.5V22h-18.5V4.5h-7.8V22
				h-13.9v6.6h13.9v35.7c0,12.8,7.5,17.8,17.2,17.8c2.9,0,5.5-0.4,8.5-1.7L1135.3,73.5L1135.3,73.5z M1049.5,46.6
				c0-11,7.4-18.9,16.6-18.9c9.6,0,14.8,6.4,14.8,17.7V81h7.8V42.7c0-14-8-21.8-20.3-21.8c-8.5,0-15.7,4.9-19.5,12.2V22h-7.3v59h7.8
				L1049.5,46.6L1049.5,46.6z M1000.9,75.3c-11.4,0-20-9.2-20-23.8c0-14.4,8.6-23.6,20-23.6c11.5,0,20.1,9.2,20.1,23.6
				C1021,66.1,1012.4,75.3,1000.9,75.3 M1000.9,82.1c16.3,0,28.1-12.9,28.1-30.7c0-17.7-11.7-30.4-28.1-30.4
				c-16.2,0-28,12.8-28,30.4C972.9,69.2,984.6,82.1,1000.9,82.1 M915.3,81h7.4L952,12.8V81h7.7V0.6H949l-30,70.1L889.2,0.6h-10.9V81
				h7.8V12.8L915.3,81z M798.7,64.4c0-8.2,6.5-12.1,19.9-12.1c3.2,0,6.7,0.1,11.7,0.6v5.3c0,11.1-6.9,18.2-17.9,18.2
				C804.2,76.4,798.7,71.6,798.7,64.4 M831.2,81h6.7V42.6c0-13.7-8.1-21.7-21.8-21.7c-13.4,0-22.5,8.7-22.8,21.8h7.2
				c0.1-9.6,6.2-15.6,15.8-15.6c9,0,14.2,5.8,14.2,15.7v4.9c-5.8-0.4-8.5-0.7-12.1-0.7c-17.9,0-27.1,6-27.1,17.6
				c0,10.6,8,17.5,20.1,17.5c9.2,0,16.3-4.5,19.8-11.9L831.2,81L831.2,81z M731.8,51.5c0-15,7.6-23.7,19.1-23.7
				c11.2,0,19.3,8.6,19.3,23.5c0,14.8-7.8,24.1-19.3,24.1C739.4,75.3,731.8,66.5,731.8,51.5 M723.9,51.5c0,18.1,10.1,30.7,26,30.7
				c9.1,0,16.7-4.9,20.8-13.5V81h7.3V0.6h-7.8v33.7c-3.9-8.4-11.4-13.4-20.3-13.4C733.9,20.9,723.9,33.3,723.9,51.5 M711.2,22h-7.8
				v59h7.8V22z M713.6,8.4c0-3.4-2.6-5.8-6.4-5.8c-3.7,0-6.3,2.5-6.3,5.8c0,3.5,2.6,5.9,6.3,5.9C711,14.3,713.6,11.8,713.6,8.4
				 M671.8,49.4c0-12.9,9.5-20.6,21.9-20.1v-8.2c-9.7,0-18.5,5.6-22.5,14.3V22H664v59h7.8V49.4L671.8,49.4z M608.4,64.4
				c0-8.2,6.5-12.1,19.9-12.1c3.2,0,6.7,0.1,11.7,0.6v5.3c0,11.1-6.9,18.2-17.9,18.2C613.8,76.4,608.4,71.6,608.4,64.4 M640.8,81
				h6.7V42.6c0-13.7-8.1-21.7-21.8-21.7c-13.4,0-22.5,8.7-22.8,21.8h7.2c0.1-9.6,6.2-15.6,15.8-15.6c9,0,14.2,5.8,14.2,15.7v4.9
				c-5.8-0.4-8.5-0.7-12.1-0.7c-17.9,0-27.1,6-27.1,17.6c0,10.6,8,17.5,20.1,17.5c9.2,0,16.3-4.5,19.8-11.9L640.8,81L640.8,81z
				 M543.3,50.7c0-14.3,6.9-23.1,18.1-23.1c11.2,0,18.5,9.2,18.5,23.6c0,13.7-7.4,22.6-18.5,22.6C550.2,73.8,543.3,65.1,543.3,50.7
				 M562.1,103.8c16.1,0,25.4-9,25.4-24.2V22h-7.3v12.5c-3.8-8.6-11.2-13.7-20-13.7c-14.9,0-24.7,11.9-24.7,29.8s10,29.9,24.8,29.9
				c8.7,0,15.9-4.8,19.5-13.1v12.3c0,11.6-6.2,17.8-17.8,17.8c-10.5,0-16.8-5.1-17.5-14.8H537C537.7,96,547.1,103.8,562.1,103.8
				 M508.3,49.4c0-12.9,9.5-20.6,21.9-20.1v-8.2c-9.7,0-18.5,5.6-22.5,14.3V22h-7.3v59h7.8L508.3,49.4L508.3,49.4z M444.8,64.4
				c0-8.2,6.5-12.1,19.9-12.1c3.2,0,6.7,0.1,11.7,0.6v5.3c0,11.1-6.9,18.2-17.9,18.2C450.3,76.4,444.8,71.6,444.8,64.4 M477.3,81
				h6.7V42.6c0-13.7-8.1-21.7-21.8-21.7c-13.4,0-22.5,8.7-22.8,21.8h7.2c0.1-9.6,6.2-15.6,15.8-15.6c9,0,14.2,5.8,14.2,15.7v4.9
				c-5.8-0.4-8.5-0.7-12.1-0.7c-17.9,0-27.1,6-27.1,17.6c0,10.6,8,17.5,20.1,17.5c9.2,0,16.3-4.5,19.8-11.9L477.3,81L477.3,81z
				 M379,81h7.4l29.3-68.2V81h7.7V0.6h-10.7l-30,70.1L352.9,0.6H342V81h7.8V12.8L379,81z M224.4,81V46.4c0-10.9,7.2-18.7,16.2-18.7
				c9.5,0,14.7,6.4,14.7,17.6V81h7.8V46.4c0-10.9,7.3-18.7,16.2-18.7c9.5,0,14.7,6.4,14.7,17.6V81h7.7V42.7
				c0-13.8-7.6-21.8-19.8-21.8c-9.3,0-16.7,5.4-20.4,13.7C259,26,252.2,20.9,243,20.9c-8.4,0-15.3,4.6-19.3,12.2V22h-7.3v59H224.4
				L224.4,81z M201.2,9.4c0-5.4-2.7-9.4-7.8-9.4c-3.9,0-6.7,2.5-6.7,6.2c0,3.4,2.6,5.9,6,5.9c0.9,0,1.8-0.1,2.7-0.6
				c-0.7,4.8-4.8,8.4-10.6,8.4v4.6C194.8,24.8,201.2,17.1,201.2,9.4 M169.7,0.6h-8.4V81h8.4V0.6z M121.8,74.6c0-4.1-3-7-7.2-7
				c-4,0-7.2,2.9-7.2,7c0,4,3.1,6.9,7.2,6.9S121.8,78.7,121.8,74.6 M117.6,60.9l1.7-60.2h-9.2l1.6,60.2H117.6z M92.1,22h-7.8v59h7.8
				V22z M94.4,8.4c0-3.4-2.6-5.8-6.4-5.8c-3.7,0-6.3,2.5-6.3,5.8c0,3.5,2.6,5.9,6.3,5.9C91.8,14.3,94.4,11.8,94.4,8.4 M12.6,81V43.2
				h45.7V81h8.4V0.6h-8.4v35.3H12.6V0.6H4.2V81H12.6L12.6,81z"/>
		</g>
	</g>
</g>
</svg>
