<?xml version="1.0" encoding="utf-8"?>
<!-- Generator: Adobe Illustrator 27.5.0, SVG Export Plug-In . SVG Version: 6.00 Build 0)  -->
<svg version="1.1" id="Layer_1" xmlns="http://www.w3.org/2000/svg" xmlns:xlink="http://www.w3.org/1999/xlink" x="0px" y="0px"
	 viewBox="0 0 375 665" style="enable-background:new 0 0 375 665;" xml:space="preserve">
<style type="text/css">
	.st0{fill:#0046FF;}
</style>
<g>
	<path class="st0" d="M4.7,374.1v-41.6H9v18.3h23.7v-18.3h4.3v41.6h-4.3v-19.6H9v19.6H4.7z"/>
	<path class="st0" d="M48.1,339.6c-1.9,0-3.2-1.3-3.2-3.1c0-1.7,1.3-3,3.2-3c2,0,3.3,1.3,3.3,3C51.4,338.3,50.1,339.6,48.1,339.6z
		 M46.2,374.1v-30.6h4.1v30.6H46.2z"/>
	<path class="st0" d="M61.9,374.4c-2.1,0-3.7-1.5-3.7-3.6c0-2.1,1.6-3.7,3.7-3.7c2.1,0,3.7,1.5,3.7,3.7
		C65.7,372.9,64,374.4,61.9,374.4z M60.4,363.7l-0.8-31.2h4.8l-0.9,31.2H60.4z"/>
	<path class="st0" d="M4.7,443.7v-41.6H9v41.6H4.7z"/>
	<path class="st0" d="M16.8,414.5v-2.4c3,0,5.2-1.9,5.5-4.3c-0.5,0.2-0.9,0.3-1.4,0.3c-1.8,0-3.1-1.3-3.1-3.1c0-1.9,1.4-3.2,3.5-3.2
		c2.7,0,4.1,2.1,4.1,4.9C25.3,410.6,22,414.6,16.8,414.5z"/>
	<path class="st0" d="M33.3,443.7v-30.6h3.8v5.7c2-3.9,5.6-6.3,10-6.3c4.8,0,8.3,2.6,9.6,7.1c1.9-4.3,5.7-7.1,10.6-7.1
		c6.3,0,10.3,4.2,10.3,11.3v19.8h-4v-18.5c0-5.8-2.7-9.1-7.6-9.1c-4.6,0-8.4,4.1-8.4,9.7v17.9h-4.1v-18.5c0-5.8-2.7-9.1-7.6-9.1
		c-4.7,0-8.4,4.1-8.4,9.7v17.9H33.3z"/>
	<path class="st0" d="M102.4,408.4v35.3h-4.1v-41.6h5.6l15.4,36.3l15.5-36.3h5.6v41.6h-4v-35.3l-15.2,35.3h-3.8L102.4,408.4z"/>
	<path class="st0" d="M168.4,438.2c-1.8,3.8-5.5,6.1-10.3,6.1c-6.3,0-10.4-3.5-10.4-9c0-6,4.8-9.1,14-9.1c1.9,0,3.2,0.1,6.3,0.3V424
		c0-5.1-2.7-8.1-7.4-8.1c-5,0-8.1,3.1-8.2,8.1h-3.7c0.2-6.8,4.9-11.3,11.8-11.3c7.1,0,11.3,4.2,11.3,11.3v19.9h-3.5V438.2z
		 M158.7,441.4c5.7,0,9.3-3.7,9.3-9.5v-2.7c-2.6-0.2-4.4-0.3-6.1-0.3c-7,0-10.3,2-10.3,6.3C151.6,438.9,154.5,441.4,158.7,441.4z"/>
	<path class="st0" d="M184.5,443.7h-4.1v-30.6h3.8v7c2.1-4.5,6.6-7.4,11.7-7.4v4.2c-6.4-0.2-11.4,3.8-11.4,10.4V443.7z"/>
	<path class="st0" d="M199.4,444.7h3.9c0.3,5,3.6,7.7,9,7.7c6,0,9.2-3.2,9.2-9.2v-6.4c-1.9,4.3-5.6,6.8-10.1,6.8
		c-7.7,0-12.9-6.2-12.9-15.5c0-9.3,5.1-15.4,12.8-15.4c4.6,0,8.4,2.6,10.4,7.1v-6.5h3.8V443c0,7.9-4.8,12.5-13.2,12.5
		C204.6,455.6,199.7,451.5,199.4,444.7z M212,440c5.7,0,9.6-4.6,9.6-11.7c0-7.5-3.8-12.2-9.6-12.2s-9.4,4.5-9.4,11.9
		C202.6,435.5,206.2,440,212,440z"/>
	<path class="st0" d="M253.2,438.2c-1.8,3.8-5.5,6.1-10.3,6.1c-6.3,0-10.4-3.5-10.4-9c0-6,4.8-9.1,14-9.1c1.9,0,3.2,0.1,6.3,0.3V424
		c0-5.1-2.7-8.1-7.4-8.1c-5,0-8.1,3.1-8.2,8.1h-3.7c0.2-6.8,4.9-11.3,11.8-11.3c7.1,0,11.3,4.2,11.3,11.3v19.9h-3.5V438.2z
		 M243.5,441.4c5.7,0,9.3-3.7,9.3-9.5v-2.7c-2.6-0.2-4.4-0.3-6.1-0.3c-7,0-10.3,2-10.3,6.3C236.3,438.9,239.2,441.4,243.5,441.4z"/>
	<path class="st0" d="M269.2,443.7h-4.1v-30.6h3.8v7c2.1-4.5,6.6-7.4,11.7-7.4v4.2c-6.4-0.2-11.4,3.8-11.4,10.4V443.7z"/>
	<path class="st0" d="M287.6,409.2c-1.9,0-3.2-1.3-3.2-3.1c0-1.7,1.3-3,3.2-3c2,0,3.3,1.3,3.3,3
		C290.9,407.9,289.5,409.2,287.6,409.2z M285.6,443.7v-30.6h4.1v30.6H285.6z"/>
	<path class="st0" d="M309.7,412.6c4.6,0,8.5,2.6,10.5,7v-17.5h4.1v41.6h-3.8v-6.4c-2.1,4.5-6.1,7-10.8,7c-8.2,0-13.5-6.5-13.5-15.9
		S301.4,412.6,309.7,412.6z M310.2,440.8c5.9,0,10-4.8,10-12.5c0-7.7-4.2-12.2-10-12.2c-6,0-9.9,4.5-9.9,12.3
		S304.3,440.8,310.2,440.8z"/>
	<path class="st0" d="M351.8,438.2c-1.8,3.8-5.5,6.1-10.3,6.1c-6.3,0-10.4-3.5-10.4-9c0-6,4.8-9.1,14-9.1c1.9,0,3.2,0.1,6.3,0.3V424
		c0-5.1-2.7-8.1-7.4-8.1c-5,0-8.1,3.1-8.2,8.1h-3.7c0.2-6.8,4.9-11.3,11.8-11.3c7.1,0,11.3,4.2,11.3,11.3v19.9h-3.5V438.2z
		 M342.1,441.4c5.7,0,9.3-3.7,9.3-9.5v-2.7c-2.6-0.2-4.4-0.3-6.1-0.3c-7,0-10.3,2-10.3,6.3C335,438.9,337.8,441.4,342.1,441.4z"/>
	<path class="st0" d="M8.8,478v35.3H4.7v-41.6h5.6L25.8,508l15.5-36.3h5.6v41.6h-4V478l-15.2,35.3h-3.8L8.8,478z"/>
	<path class="st0" d="M53.7,498c0-9.2,6.1-15.8,14.5-15.8c8.5,0,14.6,6.6,14.6,15.8c0,9.2-6.1,15.9-14.6,15.9
		C59.8,513.9,53.7,507.3,53.7,498z M78.6,498c0-7.5-4.5-12.2-10.4-12.2c-5.9,0-10.4,4.8-10.4,12.2c0,7.6,4.5,12.4,10.4,12.4
		C74.2,510.4,78.6,505.6,78.6,498z"/>
	<path class="st0" d="M93.4,513.3h-4.1v-30.6h3.8v5.7c2-3.8,5.7-6.3,10.1-6.3c6.4,0,10.5,4.1,10.5,11.3v19.8h-4.1v-18.4
		c0-5.9-2.7-9.2-7.7-9.2c-4.8,0-8.6,4.1-8.6,9.8V513.3z"/>
	<path class="st0" d="M137.9,513.1c-1.6,0.6-2.9,0.9-4.4,0.9c-5,0-8.9-2.6-8.9-9.2v-18.5h-7.2v-3.4h7.2v-9h4.1v9h9.6v3.4h-9.6v17.6
		c0,4.8,2.3,6.4,5.7,6.4c1.3,0,2.3-0.2,3.6-0.8V513.1z"/>
	<path class="st0" d="M141.1,497.8c0-8.9,5.9-15.6,14-15.6c8.7,0,14.4,7,13.7,16.8h-23.7c0.3,7.2,4.2,11.7,10.1,11.7
		c5.1,0,8.6-2.8,9.6-7.7h4c-1.4,6.8-6.6,10.9-13.6,10.9C146.7,513.9,141.1,507.5,141.1,497.8z M145.1,496.2h19.4
		c-0.3-6.8-3.9-10.9-9.5-10.9C149.5,485.3,145.6,489.6,145.1,496.2z"/>
	<path class="st0" d="M177.5,478.8c-1.9,0-3.2-1.3-3.2-3.1c0-1.7,1.3-3,3.2-3c2,0,3.3,1.3,3.3,3
		C180.8,477.5,179.4,478.8,177.5,478.8z M175.5,513.3v-30.6h4.1v30.6H175.5z"/>
	<path class="st0" d="M192.4,513.3h-4.1v-30.6h3.8v7c2.1-4.5,6.6-7.4,11.7-7.4v4.2c-6.4-0.2-11.4,3.8-11.4,10.4V513.3z"/>
	<path class="st0" d="M206.5,498c0-9.2,6.1-15.8,14.5-15.8c8.5,0,14.6,6.6,14.6,15.8c0,9.2-6.1,15.9-14.6,15.9
		C212.6,513.9,206.5,507.3,206.5,498z M231.4,498c0-7.5-4.5-12.2-10.4-12.2c-5.9,0-10.4,4.8-10.4,12.2c0,7.6,4.5,12.4,10.4,12.4
		C227,510.4,231.4,505.6,231.4,498z"/>
	<path class="st0" d="M239,519.9v-2.4c3.3-0.2,5.6-2.3,5.8-4.9c-0.5,0.2-0.9,0.3-1.3,0.3c-1.9,0-3.2-1.5-3.2-3.2
		c0-2,1.5-3.4,3.5-3.4c2.7,0,4.1,2.1,4.1,5.2C247.8,515.7,244.6,519.7,239,519.9z"/>
	<path class="st0" d="M287,507.8c-1.8,3.8-5.5,6.1-10.3,6.1c-6.3,0-10.4-3.5-10.4-9c0-6,4.8-9.1,14-9.1c1.9,0,3.2,0.1,6.3,0.3v-2.6
		c0-5.1-2.7-8.1-7.4-8.1c-5,0-8.1,3.1-8.2,8.1h-3.7c0.2-6.8,4.9-11.3,11.8-11.3c7.1,0,11.3,4.2,11.3,11.3v19.9H287V507.8z
		 M277.3,511c5.7,0,9.3-3.7,9.3-9.5v-2.7c-2.6-0.2-4.4-0.3-6.1-0.3c-7,0-10.3,2-10.3,6.3C270.2,508.5,273,511,277.3,511z"/>
	<path class="st0" d="M2.3,562.1c0-12.2,8.8-21.6,20.4-21.6c9.9,0,18.1,6.7,19.7,16.6h-4.6c-1.3-7.4-7.5-12.7-15.1-12.7
		c-9.2,0-15.9,7.5-15.9,17.7c0,10.3,6.7,17.9,15.9,17.9c7.7,0,13.9-5.3,15.1-12.8h4.6c-1.6,9.9-9.8,16.6-19.7,16.6
		C11.1,583.8,2.3,574.4,2.3,562.1z"/>
	<path class="st0" d="M46.9,567.6c0-9.2,6.1-15.8,14.5-15.8c8.5,0,14.6,6.6,14.6,15.8c0,9.2-6.1,15.9-14.6,15.9
		C53,583.5,46.9,576.9,46.9,567.6z M71.8,567.6c0-7.5-4.5-12.2-10.4-12.2c-5.9,0-10.4,4.8-10.4,12.2c0,7.6,4.5,12.4,10.4,12.4
		C67.3,580,71.8,575.2,71.8,567.6z"/>
	<path class="st0" d="M82.5,582.9v-30.6h3.8v5.7c2-3.9,5.6-6.3,10-6.3c4.8,0,8.3,2.6,9.6,7.1c1.9-4.3,5.7-7.1,10.6-7.1
		c6.3,0,10.3,4.2,10.3,11.3v19.8h-4v-18.5c0-5.8-2.7-9.1-7.6-9.1c-4.6,0-8.4,4.1-8.4,9.7v17.9h-4.1v-18.5c0-5.8-2.7-9.1-7.6-9.1
		c-4.7,0-8.4,4.1-8.4,9.7v17.9H82.5z"/>
	<path class="st0" d="M154.7,552.4h4v30.6h-3.8v-5.5c-1.6,3.5-5.3,6.1-9.7,6.1c-6.2,0-10.3-3.5-10.3-11.3v-19.9h4.1v19
		c0,6.2,3.1,8.6,7.4,8.6c4.9,0,8.4-3.9,8.4-9.4V552.4z"/>
	<path class="st0" d="M171.6,582.9h-4.1v-30.6h3.8v5.7c2-3.8,5.7-6.3,10.1-6.3c6.4,0,10.5,4.1,10.5,11.3v19.8h-4.1v-18.4
		c0-5.9-2.7-9.2-7.7-9.2c-4.8,0-8.6,4.1-8.6,9.8V582.9z"/>
	<path class="st0" d="M202.4,548.4c-1.9,0-3.2-1.3-3.2-3.1c0-1.7,1.3-3,3.2-3c2,0,3.3,1.3,3.3,3
		C205.7,547.1,204.3,548.4,202.4,548.4z M200.4,582.9v-30.6h4.1v30.6H200.4z"/>
	<path class="st0" d="M211,567.6c0-9.3,5.7-15.8,13.7-15.8c7.1,0,12.2,4.8,13.5,12.4H234c-0.9-5.6-4.4-8.9-9.3-8.9
		c-5.7,0-9.6,5-9.6,12.3c0,7.4,3.9,12.4,9.6,12.4c5,0,8.4-3.2,9.3-8.9h4.1c-1.1,7.8-6.3,12.5-13.5,12.5
		C216.6,583.6,211,577,211,567.6z"/>
	<path class="st0" d="M263.5,577.4c-1.8,3.8-5.5,6.1-10.3,6.1c-6.3,0-10.4-3.5-10.4-9c0-6,4.8-9.1,14-9.1c1.9,0,3.2,0.1,6.3,0.3
		v-2.6c0-5.1-2.7-8.1-7.4-8.1c-5,0-8.1,3.1-8.2,8.1h-3.7c0.2-6.8,4.9-11.3,11.8-11.3c7.1,0,11.3,4.2,11.3,11.3v19.9h-3.5V577.4z
		 M253.8,580.6c5.7,0,9.3-3.7,9.3-9.5v-2.7c-2.6-0.2-4.4-0.3-6.1-0.3c-7,0-10.3,2-10.3,6.3C246.7,578.1,249.5,580.6,253.8,580.6z"/>
	<path class="st0" d="M291,582.7c-1.6,0.6-2.9,0.9-4.4,0.9c-5,0-8.9-2.6-8.9-9.2v-18.5h-7.2v-3.4h7.2v-9h4.1v9h9.6v3.4h-9.6v17.6
		c0,4.8,2.3,6.4,5.7,6.4c1.3,0,2.3-0.2,3.6-0.8V582.7z"/>
	<path class="st0" d="M299.4,548.4c-1.9,0-3.2-1.3-3.2-3.1c0-1.7,1.3-3,3.2-3c2,0,3.3,1.3,3.3,3
		C302.8,547.1,301.4,548.4,299.4,548.4z M297.5,582.9v-30.6h4.1v30.6H297.5z"/>
	<path class="st0" d="M308.1,567.6c0-9.2,6.1-15.8,14.5-15.8c8.5,0,14.6,6.6,14.6,15.8c0,9.2-6.1,15.9-14.6,15.9
		C314.2,583.5,308.1,576.9,308.1,567.6z M333,567.6c0-7.5-4.5-12.2-10.4-12.2c-5.9,0-10.4,4.8-10.4,12.2c0,7.6,4.5,12.4,10.4,12.4
		C328.6,580,333,575.2,333,567.6z"/>
	<path class="st0" d="M347.8,582.9h-4.1v-30.6h3.8v5.7c2-3.8,5.7-6.3,10.1-6.3c6.4,0,10.5,4.1,10.5,11.3v19.8H364v-18.4
		c0-5.9-2.7-9.2-7.7-9.2c-4.8,0-8.6,4.1-8.6,9.8V582.9z"/>
	<path class="st0" d="M4.7,652.5v-41.6h11.8c13.3,0,20.7,8.5,20.7,20.6c0,12-7.7,21-20.7,21H4.7z M9,648.8h7.4
		c10.6,0,16.4-6.9,16.4-17.2c0-10.3-5.7-16.9-16.4-16.9H9V648.8z"/>
	<path class="st0" d="M41.7,637c0-8.9,5.9-15.6,14-15.6c8.7,0,14.4,7,13.7,16.8H45.8c0.3,7.2,4.2,11.7,10.1,11.7
		c5.1,0,8.6-2.8,9.6-7.7h4C68.1,649,63,653.1,56,653.1C47.4,653.1,41.7,646.7,41.7,637z M45.8,635.4h19.4
		c-0.3-6.8-3.9-10.9-9.5-10.9C50.2,624.5,46.3,628.8,45.8,635.4z"/>
	<path class="st0" d="M86.9,653.1c-7.6,0-12.2-3.8-12.8-10.1H78c0.3,4.3,3.7,7.1,8.9,7.1c5,0,8-1.9,8-5.4c0-3-1.7-4.4-6.4-5.3
		l-4.4-0.9c-5.8-1.1-8.9-3.9-8.9-8.4c0-5.1,4.5-8.7,11.2-8.7c7,0,11.7,3.8,12.1,9.9h-3.8c-0.4-4.2-3.5-6.7-8.3-6.7
		c-4.3,0-7.2,2-7.2,5.2c0,3,1.9,4.5,6.4,5.3l4.6,0.9c6.1,1.2,8.8,3.7,8.8,8.1C99,649.6,94.5,653.1,86.9,653.1z"/>
	<path class="st0" d="M108.1,618c-1.9,0-3.2-1.3-3.2-3.1c0-1.7,1.3-3,3.2-3c2,0,3.3,1.3,3.3,3C111.4,616.7,110,618,108.1,618z
		 M106.1,652.5V622h4.1v30.6H106.1z"/>
	<path class="st0" d="M117.5,653.5h3.9c0.3,5,3.6,7.7,9,7.7c6,0,9.2-3.2,9.2-9.2v-6.4c-1.9,4.3-5.6,6.8-10.1,6.8
		c-7.7,0-12.9-6.2-12.9-15.5c0-9.3,5.1-15.4,12.8-15.4c4.6,0,8.4,2.6,10.4,7.1V622h3.8v29.9c0,7.9-4.8,12.5-13.2,12.5
		C122.7,664.4,117.9,660.3,117.5,653.5z M130.1,648.8c5.7,0,9.6-4.6,9.6-11.7c0-7.5-3.8-12.2-9.6-12.2s-9.4,4.5-9.4,11.9
		C120.8,644.3,124.3,648.8,130.1,648.8z"/>
	<path class="st0" d="M156.5,652.5h-4.1V622h3.8v5.7c2-3.8,5.7-6.3,10.1-6.3c6.4,0,10.5,4.1,10.5,11.3v19.8h-4.1v-18.4
		c0-5.9-2.7-9.2-7.7-9.2c-4.8,0-8.6,4.1-8.6,9.8V652.5z"/>
	<path class="st0" d="M183.1,637c0-8.9,5.9-15.6,14-15.6c8.7,0,14.4,7,13.7,16.8h-23.7c0.3,7.2,4.2,11.7,10.1,11.7
		c5.1,0,8.6-2.8,9.6-7.7h4c-1.4,6.8-6.6,10.9-13.6,10.9C188.8,653.1,183.1,646.7,183.1,637z M187.2,635.4h19.4
		c-0.3-6.8-3.9-10.9-9.5-10.9C191.6,624.5,187.7,628.8,187.2,635.4z"/>
	<path class="st0" d="M221.6,652.5h-4.1V622h3.8v7c2.1-4.5,6.6-7.4,11.7-7.4v4.2c-6.4-0.2-11.4,3.8-11.4,10.4V652.5z"/>
	<path class="st0" d="M240.9,652.8c-2.1,0-3.7-1.5-3.7-3.6c0-2.1,1.6-3.7,3.7-3.7c2.1,0,3.7,1.5,3.7,3.7
		C244.6,651.3,243,652.8,240.9,652.8z M239.3,642.1l-0.8-31.2h4.8l-0.9,31.2H239.3z"/>
</g>
</svg>
