<?xml version="1.0" encoding="utf-8"?>
<!-- Generator: Adobe Illustrator 27.5.0, SVG Export Plug-In . SVG Version: 6.00 Build 0)  -->
<svg version="1.1" id="Layer_1" xmlns="http://www.w3.org/2000/svg" xmlns:xlink="http://www.w3.org/1999/xlink" x="0px" y="0px"
	 viewBox="0 0 375 665" style="enable-background:new 0 0 375 665;" xml:space="preserve">
<style type="text/css">
	.st0{fill:#0046FF;}
</style>
<g>
	<path class="st0" d="M6.6,407.1v-36.3h3.8v15.9H31v-15.9h3.8v36.3H31V390H10.4v17.1H6.6z"/>
	<path class="st0" d="M44.4,377c-1.7,0-2.8-1.1-2.8-2.7c0-1.5,1.2-2.6,2.8-2.6c1.7,0,2.9,1.1,2.9,2.6C47.3,375.8,46.2,377,44.4,377z
		 M42.7,407.1v-26.6h3.5v26.6H42.7z"/>
	<path class="st0" d="M56.5,407.3c-1.8,0-3.2-1.3-3.2-3.1c0-1.9,1.4-3.2,3.2-3.2c1.9,0,3.2,1.3,3.2,3.2
		C59.7,406,58.3,407.3,56.5,407.3z M55.1,398l-0.7-27.2h4.1L57.8,398H55.1z"/>
	<path class="st0" d="M6.6,467.7v-36.3h3.8v36.3H6.6z"/>
	<path class="st0" d="M17.1,442.2v-2.1c2.6,0,4.5-1.6,4.8-3.8c-0.4,0.2-0.8,0.3-1.2,0.3c-1.6,0-2.7-1.2-2.7-2.7c0-1.7,1.3-2.8,3-2.8
		c2.3,0,3.5,1.8,3.5,4.2C24.6,438.9,21.7,442.4,17.1,442.2z"/>
	<path class="st0" d="M31.5,467.7v-26.6h3.3v5c1.8-3.4,4.9-5.5,8.7-5.5c4.1,0,7.2,2.3,8.3,6.2c1.7-3.7,5-6.2,9.2-6.2
		c5.5,0,8.9,3.6,8.9,9.9v17.3h-3.5v-16.1c0-5.1-2.3-7.9-6.6-7.9c-4,0-7.3,3.5-7.3,8.4v15.6H49v-16.1c0-5.1-2.3-7.9-6.6-7.9
		c-4.1,0-7.3,3.5-7.3,8.4v15.6H31.5z"/>
	<path class="st0" d="M91.7,437v30.8h-3.5v-36.3h4.9l13.4,31.6l13.5-31.6h4.8v36.3h-3.5V437l-13.2,30.8h-3.3L91.7,437z"/>
	<path class="st0" d="M149.2,462.9c-1.6,3.3-4.8,5.4-8.9,5.4c-5.5,0-9.1-3.1-9.1-7.9c0-5.2,4.1-7.9,12.2-7.9c1.6,0,2.8,0.1,5.5,0.3
		v-2.2c0-4.4-2.4-7.1-6.4-7.1c-4.3,0-7.1,2.7-7.1,7h-3.2c0.2-5.9,4.2-9.9,10.3-9.9c6.2,0,9.9,3.6,9.9,9.8v17.3h-3V462.9z
		 M140.8,465.6c4.9,0,8.1-3.2,8.1-8.2V455c-2.3-0.2-3.8-0.3-5.3-0.3c-6.1,0-9,1.8-9,5.5C134.6,463.5,137.1,465.6,140.8,465.6z"/>
	<path class="st0" d="M163.3,467.7h-3.5v-26.6h3.3v6.1c1.8-3.9,5.8-6.5,10.2-6.5v3.7c-5.6-0.2-9.9,3.3-9.9,9.1V467.7z"/>
	<path class="st0" d="M176.2,468.5h3.4c0.3,4.3,3.1,6.7,7.9,6.7c5.3,0,8-2.8,8-8v-5.6c-1.6,3.7-4.8,5.9-8.8,5.9
		c-6.7,0-11.2-5.4-11.2-13.5s4.4-13.4,11.2-13.4c4,0,7.3,2.3,9,6.2v-5.7h3.3v26c0,6.9-4.2,10.9-11.5,10.9
		C180.8,478,176.5,474.5,176.2,468.5z M187.3,464.5c5,0,8.3-4,8.3-10.2c0-6.5-3.3-10.7-8.3-10.7c-5.1,0-8.2,3.9-8.2,10.4
		C179.1,460.5,182.2,464.5,187.3,464.5z"/>
	<path class="st0" d="M223.1,462.9c-1.6,3.3-4.8,5.4-8.9,5.4c-5.5,0-9.1-3.1-9.1-7.9c0-5.2,4.1-7.9,12.2-7.9c1.6,0,2.8,0.1,5.5,0.3
		v-2.2c0-4.4-2.4-7.1-6.4-7.1c-4.3,0-7.1,2.7-7.1,7H206c0.2-5.9,4.2-9.9,10.3-9.9c6.2,0,9.9,3.6,9.9,9.8v17.3h-3V462.9z
		 M214.7,465.6c4.9,0,8.1-3.2,8.1-8.2V455c-2.3-0.2-3.8-0.3-5.3-0.3c-6.1,0-9,1.8-9,5.5C208.4,463.5,210.9,465.6,214.7,465.6z"/>
	<path class="st0" d="M237.1,467.7h-3.5v-26.6h3.3v6.1c1.8-3.9,5.8-6.5,10.2-6.5v3.7c-5.6-0.2-9.9,3.3-9.9,9.1V467.7z"/>
	<path class="st0" d="M253.1,437.6c-1.7,0-2.8-1.1-2.8-2.7c0-1.5,1.2-2.6,2.8-2.6c1.7,0,2.9,1.1,2.9,2.6
		C255.9,436.5,254.8,437.6,253.1,437.6z M251.3,467.7v-26.6h3.5v26.6H251.3z"/>
	<path class="st0" d="M272.3,440.6c4,0,7.4,2.3,9.1,6.1v-15.2h3.5v36.3h-3.3v-5.6c-1.9,3.9-5.3,6.1-9.4,6.1
		c-7.2,0-11.7-5.7-11.7-13.8C260.6,446.2,265.1,440.6,272.3,440.6z M272.8,465.1c5.2,0,8.7-4.2,8.7-10.9c0-6.7-3.6-10.6-8.7-10.6
		c-5.2,0-8.6,3.9-8.6,10.7C264.2,461.1,267.6,465.1,272.8,465.1z"/>
	<path class="st0" d="M309.1,462.9c-1.6,3.3-4.8,5.4-8.9,5.4c-5.5,0-9.1-3.1-9.1-7.9c0-5.2,4.1-7.9,12.2-7.9c1.6,0,2.8,0.1,5.5,0.3
		v-2.2c0-4.4-2.4-7.1-6.4-7.1c-4.3,0-7.1,2.7-7.1,7h-3.2c0.2-5.9,4.2-9.9,10.3-9.9c6.2,0,9.9,3.6,9.9,9.8v17.3h-3V462.9z
		 M300.6,465.6c4.9,0,8.1-3.2,8.1-8.2V455c-2.3-0.2-3.8-0.3-5.3-0.3c-6.1,0-9,1.8-9,5.5C294.4,463.5,296.9,465.6,300.6,465.6z"/>
	<path class="st0" d="M10.1,497.6v30.8H6.6v-36.3h4.9l13.4,31.6l13.5-31.6h4.8v36.3h-3.5v-30.8l-13.2,30.8h-3.3L10.1,497.6z"/>
	<path class="st0" d="M49.3,515c0-8,5.3-13.7,12.6-13.7c7.4,0,12.7,5.8,12.7,13.7c0,8-5.3,13.8-12.7,13.8
		C54.6,528.9,49.3,523.1,49.3,515z M71,515c0-6.5-3.9-10.7-9.1-10.7c-5.2,0-9,4.1-9,10.7c0,6.6,3.9,10.8,9,10.8
		C67.1,525.8,71,521.6,71,515z"/>
	<path class="st0" d="M83.9,528.4h-3.5v-26.6h3.3v5c1.7-3.3,4.9-5.5,8.8-5.5c5.6,0,9.1,3.5,9.1,9.9v17.3H98v-16.1c0-5.1-2.3-8-6.7-8
		c-4.1,0-7.5,3.6-7.5,8.5V528.4z"/>
	<path class="st0" d="M122.6,528.1c-1.4,0.6-2.5,0.8-3.8,0.8c-4.4,0-7.8-2.3-7.8-8v-16.1h-6.3v-3h6.3v-7.9h3.5v7.9h8.3v3h-8.3v15.4
		c0,4.1,2,5.6,4.9,5.6c1.1,0,2-0.2,3.1-0.7V528.1z"/>
	<path class="st0" d="M125.4,514.8c0-7.8,5.2-13.6,12.2-13.6c7.6,0,12.5,6.1,11.9,14.6h-20.6c0.3,6.3,3.6,10.2,8.8,10.2
		c4.4,0,7.5-2.5,8.4-6.7h3.5c-1.2,5.9-5.7,9.5-11.8,9.5C130.4,528.9,125.4,523.3,125.4,514.8z M128.9,513.5h16.9
		c-0.3-6-3.4-9.5-8.3-9.5C132.8,504,129.4,507.7,128.9,513.5z"/>
	<path class="st0" d="M157.1,498.3c-1.7,0-2.8-1.1-2.8-2.7c0-1.5,1.2-2.6,2.8-2.6c1.7,0,2.9,1.1,2.9,2.6
		C160,497.1,158.9,498.3,157.1,498.3z M155.4,528.4v-26.6h3.5v26.6H155.4z"/>
	<path class="st0" d="M170.2,528.4h-3.5v-26.6h3.3v6.1c1.8-3.9,5.8-6.5,10.2-6.5v3.7c-5.6-0.2-9.9,3.3-9.9,9.1V528.4z"/>
	<path class="st0" d="M182.4,515c0-8,5.3-13.7,12.6-13.7c7.4,0,12.7,5.8,12.7,13.7c0,8-5.3,13.8-12.7,13.8
		C187.7,528.9,182.4,523.1,182.4,515z M204.1,515c0-6.5-3.9-10.7-9.1-10.7c-5.2,0-9,4.1-9,10.7c0,6.6,3.9,10.8,9,10.8
		C200.2,525.8,204.1,521.6,204.1,515z"/>
	<path class="st0" d="M210.8,534.1V532c2.9-0.2,4.8-2,5.1-4.3c-0.4,0.2-0.8,0.3-1.2,0.3c-1.6,0-2.8-1.3-2.8-2.8c0-1.8,1.3-2.9,3-2.9
		c2.4,0,3.5,1.8,3.5,4.5C218.4,530.4,215.6,533.9,210.8,534.1z"/>
	<path class="st0" d="M252.5,523.5c-1.6,3.3-4.8,5.4-8.9,5.4c-5.5,0-9.1-3.1-9.1-7.9c0-5.2,4.1-7.9,12.2-7.9c1.6,0,2.8,0.1,5.5,0.3
		v-2.2c0-4.4-2.4-7.1-6.4-7.1c-4.3,0-7.1,2.7-7.1,7h-3.2c0.2-5.9,4.2-9.9,10.3-9.9c6.2,0,9.9,3.6,9.9,9.8v17.3h-3V523.5z
		 M244.1,526.3c4.9,0,8.1-3.2,8.1-8.2v-2.4c-2.3-0.2-3.8-0.3-5.3-0.3c-6.1,0-9,1.8-9,5.5C237.9,524.1,240.4,526.3,244.1,526.3z"/>
	<path class="st0" d="M4.5,570.8c0-10.7,7.6-18.8,17.7-18.8c8.6,0,15.8,5.8,17.2,14.4h-4c-1.2-6.5-6.5-11.1-13.2-11.1
		c-8,0-13.8,6.6-13.8,15.5c0,9,5.8,15.6,13.8,15.6c6.7,0,12.1-4.6,13.2-11.1h4c-1.4,8.6-8.5,14.5-17.2,14.5
		C12.1,589.8,4.5,581.5,4.5,570.8z"/>
	<path class="st0" d="M43.3,575.7c0-8,5.3-13.7,12.6-13.7c7.4,0,12.7,5.8,12.7,13.7c0,8-5.3,13.8-12.7,13.8
		C48.6,589.5,43.3,583.7,43.3,575.7z M65,575.7c0-6.5-3.9-10.7-9.1-10.7c-5.2,0-9,4.1-9,10.7c0,6.6,3.9,10.8,9,10.8
		C61.2,586.4,65,582.3,65,575.7z"/>
	<path class="st0" d="M74.4,589v-26.6h3.3v5c1.8-3.4,4.9-5.5,8.7-5.5c4.1,0,7.2,2.3,8.3,6.2c1.7-3.7,5-6.2,9.2-6.2
		c5.5,0,8.9,3.6,8.9,9.9V589h-3.5v-16.1c0-5.1-2.3-7.9-6.6-7.9c-4,0-7.3,3.5-7.3,8.4V589h-3.5v-16.1c0-5.1-2.3-7.9-6.6-7.9
		c-4.1,0-7.3,3.5-7.3,8.4V589H74.4z"/>
	<path class="st0" d="M120.2,589v-26.6h3.3v5c1.8-3.4,4.9-5.5,8.7-5.5c4.1,0,7.2,2.3,8.3,6.2c1.7-3.7,5-6.2,9.2-6.2
		c5.5,0,8.9,3.6,8.9,9.9V589h-3.5v-16.1c0-5.1-2.3-7.9-6.6-7.9c-4,0-7.3,3.5-7.3,8.4V589h-3.5v-16.1c0-5.1-2.3-7.9-6.6-7.9
		c-4.1,0-7.3,3.5-7.3,8.4V589H120.2z"/>
	<path class="st0" d="M183.2,562.4h3.5V589h-3.3v-4.8c-1.4,3.1-4.6,5.3-8.5,5.3c-5.4,0-9-3.1-9-9.8v-17.3h3.5V579
		c0,5.4,2.7,7.5,6.4,7.5c4.2,0,7.3-3.4,7.3-8.2V562.4z"/>
	<path class="st0" d="M197.9,589h-3.5v-26.6h3.3v5c1.7-3.3,4.9-5.5,8.8-5.5c5.6,0,9.1,3.5,9.1,9.9V589H212V573c0-5.1-2.3-8-6.7-8
		c-4.1,0-7.5,3.6-7.5,8.5V589z"/>
	<path class="st0" d="M224.7,558.9c-1.7,0-2.8-1.1-2.8-2.7c0-1.5,1.2-2.6,2.8-2.6c1.7,0,2.9,1.1,2.9,2.6
		C227.6,557.8,226.4,558.9,224.7,558.9z M223,589v-26.6h3.5V589H223z"/>
	<path class="st0" d="M232.2,575.7c0-8.1,4.9-13.8,11.9-13.8c6.2,0,10.7,4.1,11.7,10.8h-3.6c-0.8-4.8-3.8-7.7-8.1-7.7
		c-5,0-8.3,4.3-8.3,10.7c0,6.5,3.4,10.8,8.3,10.8c4.3,0,7.3-2.8,8.1-7.8h3.6c-1,6.8-5.5,10.9-11.7,10.9
		C237.1,589.6,232.2,583.9,232.2,575.7z"/>
	<path class="st0" d="M278,584.2c-1.6,3.3-4.8,5.4-8.9,5.4c-5.5,0-9.1-3.1-9.1-7.9c0-5.2,4.1-7.9,12.2-7.9c1.6,0,2.8,0.1,5.5,0.3
		v-2.2c0-4.4-2.4-7.1-6.4-7.1c-4.3,0-7.1,2.7-7.1,7h-3.2c0.2-5.9,4.2-9.9,10.3-9.9c6.2,0,9.9,3.6,9.9,9.8V589h-3V584.2z
		 M269.5,586.9c4.9,0,8.1-3.2,8.1-8.2v-2.4c-2.3-0.2-3.8-0.3-5.3-0.3c-6.1,0-9,1.8-9,5.5C263.3,584.8,265.8,586.9,269.5,586.9z"/>
	<path class="st0" d="M302,588.8c-1.4,0.6-2.5,0.8-3.8,0.8c-4.4,0-7.8-2.3-7.8-8v-16.1h-6.3v-3h6.3v-7.9h3.5v7.9h8.3v3h-8.3v15.4
		c0,4.1,2,5.6,4.9,5.6c1.1,0,2-0.2,3.1-0.7V588.8z"/>
	<path class="st0" d="M309.3,558.9c-1.7,0-2.8-1.1-2.8-2.7c0-1.5,1.2-2.6,2.8-2.6c1.7,0,2.9,1.1,2.9,2.6
		C312.2,557.8,311,558.9,309.3,558.9z M307.6,589v-26.6h3.5V589H307.6z"/>
	<path class="st0" d="M316.8,575.7c0-8,5.3-13.7,12.6-13.7c7.4,0,12.7,5.8,12.7,13.7c0,8-5.3,13.8-12.7,13.8
		C322.2,589.5,316.8,583.7,316.8,575.7z M338.6,575.7c0-6.5-3.9-10.7-9.1-10.7c-5.2,0-9,4.1-9,10.7c0,6.6,3.9,10.8,9,10.8
		C334.7,586.4,338.6,582.3,338.6,575.7z"/>
	<path class="st0" d="M351.4,589h-3.5v-26.6h3.3v5c1.7-3.3,5-5.5,8.8-5.5c5.6,0,9.1,3.5,9.1,9.9V589h-3.5V573c0-5.1-2.3-8-6.7-8
		c-4.1,0-7.5,3.6-7.5,8.5V589z"/>
	<path class="st0" d="M6.6,649.7v-36.3h10.3c11.6,0,18,7.4,18,18c0,10.5-6.7,18.3-18,18.3H6.6z M10.4,646.4h6.4
		c9.2,0,14.3-6,14.3-15c0-8.9-5-14.7-14.3-14.7h-6.4V646.4z"/>
	<path class="st0" d="M38.8,636.1c0-7.8,5.2-13.6,12.2-13.6c7.6,0,12.5,6.1,11.9,14.6H42.4c0.3,6.3,3.6,10.2,8.8,10.2
		c4.4,0,7.5-2.5,8.4-6.7h3.5c-1.2,5.9-5.7,9.5-11.8,9.5C43.8,650.2,38.8,644.6,38.8,636.1z M42.4,634.8h16.9c-0.3-6-3.4-9.5-8.3-9.5
		C46.2,625.3,42.8,628.9,42.4,634.8z"/>
	<path class="st0" d="M78.2,650.2c-6.6,0-10.7-3.3-11.2-8.8h3.4c0.3,3.8,3.2,6.2,7.8,6.2c4.3,0,7-1.7,7-4.7c0-2.6-1.5-3.8-5.6-4.6
		l-3.8-0.8c-5.1-1-7.7-3.4-7.7-7.3c0-4.4,3.9-7.6,9.7-7.6c6.1,0,10.2,3.3,10.6,8.6h-3.3c-0.4-3.7-3-5.9-7.2-5.9
		c-3.7,0-6.3,1.8-6.3,4.5c0,2.6,1.6,3.9,5.6,4.6l4,0.8c5.3,1,7.7,3.2,7.7,7C88.7,647.1,84.8,650.2,78.2,650.2z"/>
	<path class="st0" d="M96.6,619.6c-1.7,0-2.8-1.1-2.8-2.7c0-1.5,1.2-2.6,2.8-2.6c1.7,0,2.9,1.1,2.9,2.6
		C99.5,618.4,98.4,619.6,96.6,619.6z M94.9,649.7V623h3.5v26.6H94.9z"/>
	<path class="st0" d="M104.9,650.5h3.4c0.3,4.3,3.1,6.7,7.9,6.7c5.3,0,8-2.8,8-8v-5.6c-1.6,3.7-4.8,5.9-8.8,5.9
		c-6.7,0-11.2-5.4-11.2-13.5s4.4-13.4,11.2-13.4c4,0,7.3,2.3,9,6.2V623h3.3v26c0,6.9-4.2,10.9-11.5,10.9
		C109.4,660,105.2,656.4,104.9,650.5z M115.9,646.4c5,0,8.3-4,8.3-10.2c0-6.5-3.3-10.7-8.3-10.7c-5.1,0-8.2,3.9-8.2,10.4
		C107.7,642.5,110.8,646.4,115.9,646.4z"/>
	<path class="st0" d="M138.9,649.7h-3.5V623h3.3v5c1.7-3.3,4.9-5.5,8.8-5.5c5.6,0,9.1,3.5,9.1,9.9v17.3H153v-16.1c0-5.1-2.3-8-6.7-8
		c-4.1,0-7.5,3.6-7.5,8.5V649.7z"/>
	<path class="st0" d="M162,636.1c0-7.8,5.2-13.6,12.2-13.6c7.6,0,12.5,6.1,11.9,14.6h-20.6c0.3,6.3,3.6,10.2,8.8,10.2
		c4.4,0,7.5-2.5,8.4-6.7h3.5c-1.2,5.9-5.7,9.5-11.8,9.5C167,650.2,162,644.6,162,636.1z M165.6,634.8h16.9c-0.3-6-3.4-9.5-8.3-9.5
		C169.4,625.3,166,628.9,165.6,634.8z"/>
	<path class="st0" d="M195.6,649.7h-3.5V623h3.3v6.1c1.8-3.9,5.8-6.5,10.2-6.5v3.7c-5.6-0.2-9.9,3.3-9.9,9.1V649.7z"/>
	<path class="st0" d="M212.4,649.9c-1.8,0-3.2-1.3-3.2-3.1c0-1.9,1.4-3.2,3.2-3.2c1.9,0,3.2,1.3,3.2,3.2
		C215.6,648.6,214.2,649.9,212.4,649.9z M211,640.6l-0.7-27.2h4.1l-0.8,27.2H211z"/>
</g>
</svg>
